<mxfile host="65bd71144e">
    <diagram id="C5RBs43oDa-KdzZeNtuy" name="Page-1">
        <mxGraphModel dx="380" dy="655" grid="0" gridSize="10" guides="1" tooltips="0" connect="1" arrows="1" fold="1" page="1" pageScale="1" pageWidth="827" pageHeight="1169" math="0" shadow="0">
            <root>
                <mxCell id="WIyWlLk6GJQsqaUBKTNV-0"/>
                <mxCell id="WIyWlLk6GJQsqaUBKTNV-1" parent="WIyWlLk6GJQsqaUBKTNV-0"/>
                <mxCell id="Lccn9oIH8NGfDDjlL4F9-8" style="edgeStyle=orthogonalEdgeStyle;rounded=0;orthogonalLoop=1;jettySize=auto;html=1;exitX=0.5;exitY=1;exitDx=0;exitDy=0;entryX=0.5;entryY=1;entryDx=0;entryDy=0;" parent="WIyWlLk6GJQsqaUBKTNV-1" target="Lccn9oIH8NGfDDjlL4F9-1" edge="1">
                    <mxGeometry relative="1" as="geometry">
                        <mxPoint x="414" y="592" as="sourcePoint"/>
                    </mxGeometry>
                </mxCell>
                <mxCell id="Lccn9oIH8NGfDDjlL4F9-1" value="backup&lt;br&gt;(sftp)" style="ellipse;whiteSpace=wrap;html=1;aspect=fixed;fillColor=#fff2cc;strokeColor=#d6b656;" parent="WIyWlLk6GJQsqaUBKTNV-1" vertex="1">
                    <mxGeometry x="374" y="454" width="80" height="80" as="geometry"/>
                </mxCell>
                <mxCell id="Lccn9oIH8NGfDDjlL4F9-20" style="edgeStyle=orthogonalEdgeStyle;curved=1;orthogonalLoop=1;jettySize=auto;html=1;exitX=0.5;exitY=1;exitDx=0;exitDy=0;entryX=0.5;entryY=0;entryDx=0;entryDy=0;" parent="WIyWlLk6GJQsqaUBKTNV-1" source="Lccn9oIH8NGfDDjlL4F9-9" target="Lccn9oIH8NGfDDjlL4F9-1" edge="1">
                    <mxGeometry relative="1" as="geometry"/>
                </mxCell>
                <mxCell id="Lccn9oIH8NGfDDjlL4F9-28" style="edgeStyle=orthogonalEdgeStyle;curved=1;orthogonalLoop=1;jettySize=auto;html=1;exitX=0;exitY=0.5;exitDx=0;exitDy=0;entryX=0.5;entryY=0;entryDx=0;entryDy=0;fillColor=#f8cecc;strokeColor=#b85450;" parent="WIyWlLk6GJQsqaUBKTNV-1" source="Lccn9oIH8NGfDDjlL4F9-9" target="Lccn9oIH8NGfDDjlL4F9-27" edge="1">
                    <mxGeometry relative="1" as="geometry"/>
                </mxCell>
                <mxCell id="Lccn9oIH8NGfDDjlL4F9-40" value="SQL" style="edgeLabel;html=1;align=center;verticalAlign=middle;resizable=0;points=[];" parent="Lccn9oIH8NGfDDjlL4F9-28" vertex="1" connectable="0">
                    <mxGeometry x="-0.076" y="17" relative="1" as="geometry">
                        <mxPoint as="offset"/>
                    </mxGeometry>
                </mxCell>
                <mxCell id="Lccn9oIH8NGfDDjlL4F9-38" style="edgeStyle=orthogonalEdgeStyle;curved=1;orthogonalLoop=1;jettySize=auto;html=1;entryX=1;entryY=1;entryDx=0;entryDy=0;" parent="WIyWlLk6GJQsqaUBKTNV-1" edge="1">
                    <mxGeometry relative="1" as="geometry">
                        <mxPoint x="546.2842712474621" y="267.28427124746213" as="targetPoint"/>
                        <mxPoint x="590" y="298" as="sourcePoint"/>
                        <Array as="points">
                            <mxPoint x="590" y="273"/>
                            <mxPoint x="557" y="273"/>
                            <mxPoint x="557" y="267"/>
                        </Array>
                    </mxGeometry>
                </mxCell>
                <mxCell id="Lccn9oIH8NGfDDjlL4F9-39" value="fichiers" style="edgeLabel;html=1;align=center;verticalAlign=middle;resizable=0;points=[];" parent="Lccn9oIH8NGfDDjlL4F9-38" vertex="1" connectable="0">
                    <mxGeometry x="0.0509" y="1" relative="1" as="geometry">
                        <mxPoint as="offset"/>
                    </mxGeometry>
                </mxCell>
                <mxCell id="Lccn9oIH8NGfDDjlL4F9-45" style="edgeStyle=orthogonalEdgeStyle;curved=1;orthogonalLoop=1;jettySize=auto;html=1;exitX=1;exitY=1;exitDx=0;exitDy=0;entryX=0.5;entryY=0;entryDx=0;entryDy=0;strokeWidth=1;" parent="WIyWlLk6GJQsqaUBKTNV-1" source="Lccn9oIH8NGfDDjlL4F9-9" target="Lccn9oIH8NGfDDjlL4F9-42" edge="1">
                    <mxGeometry relative="1" as="geometry">
                        <Array as="points">
                            <mxPoint x="536" y="367"/>
                            <mxPoint x="705" y="367"/>
                        </Array>
                    </mxGeometry>
                </mxCell>
                <mxCell id="Lccn9oIH8NGfDDjlL4F9-46" value="fichiers" style="edgeLabel;html=1;align=center;verticalAlign=middle;resizable=0;points=[];" parent="Lccn9oIH8NGfDDjlL4F9-45" vertex="1" connectable="0">
                    <mxGeometry x="0.5902" y="-21" relative="1" as="geometry">
                        <mxPoint as="offset"/>
                    </mxGeometry>
                </mxCell>
                <mxCell id="Lccn9oIH8NGfDDjlL4F9-9" value="filegator" style="ellipse;whiteSpace=wrap;html=1;aspect=fixed;fillColor=#ffe6cc;strokeColor=#d79b00;" parent="WIyWlLk6GJQsqaUBKTNV-1" vertex="1">
                    <mxGeometry x="468" y="215" width="80" height="80" as="geometry"/>
                </mxCell>
                <mxCell id="Lccn9oIH8NGfDDjlL4F9-26" style="edgeStyle=orthogonalEdgeStyle;curved=1;orthogonalLoop=1;jettySize=auto;html=1;exitX=0.5;exitY=1;exitDx=0;exitDy=0;entryX=0;entryY=0;entryDx=0;entryDy=0;" parent="WIyWlLk6GJQsqaUBKTNV-1" source="Lccn9oIH8NGfDDjlL4F9-21" target="Lccn9oIH8NGfDDjlL4F9-9" edge="1">
                    <mxGeometry relative="1" as="geometry"/>
                </mxCell>
                <mxCell id="Lccn9oIH8NGfDDjlL4F9-30" value="fichier" style="edgeLabel;html=1;align=center;verticalAlign=middle;resizable=0;points=[];" parent="Lccn9oIH8NGfDDjlL4F9-26" vertex="1" connectable="0">
                    <mxGeometry x="-0.0919" y="-1" relative="1" as="geometry">
                        <mxPoint x="8" y="-11" as="offset"/>
                    </mxGeometry>
                </mxCell>
                <mxCell id="Lccn9oIH8NGfDDjlL4F9-33" style="edgeStyle=orthogonalEdgeStyle;curved=1;orthogonalLoop=1;jettySize=auto;html=1;exitX=0.25;exitY=1;exitDx=0;exitDy=0;entryX=-0.012;entryY=0.363;entryDx=0;entryDy=0;entryPerimeter=0;fillColor=#f8cecc;strokeColor=#b85450;" parent="WIyWlLk6GJQsqaUBKTNV-1" source="Lccn9oIH8NGfDDjlL4F9-21" target="Lccn9oIH8NGfDDjlL4F9-9" edge="1">
                    <mxGeometry relative="1" as="geometry"/>
                </mxCell>
                <mxCell id="Lccn9oIH8NGfDDjlL4F9-34" value="user/mdp" style="edgeLabel;html=1;align=center;verticalAlign=middle;resizable=0;points=[];" parent="Lccn9oIH8NGfDDjlL4F9-33" vertex="1" connectable="0">
                    <mxGeometry x="-0.5983" y="15" relative="1" as="geometry">
                        <mxPoint as="offset"/>
                    </mxGeometry>
                </mxCell>
                <mxCell id="Lccn9oIH8NGfDDjlL4F9-21" value="Fournisseur A" style="rounded=0;whiteSpace=wrap;html=1;" parent="WIyWlLk6GJQsqaUBKTNV-1" vertex="1">
                    <mxGeometry x="323" y="93" width="120" height="60" as="geometry"/>
                </mxCell>
                <mxCell id="Lccn9oIH8NGfDDjlL4F9-25" style="edgeStyle=orthogonalEdgeStyle;curved=1;orthogonalLoop=1;jettySize=auto;html=1;exitX=0.5;exitY=1;exitDx=0;exitDy=0;entryX=0.5;entryY=0;entryDx=0;entryDy=0;" parent="WIyWlLk6GJQsqaUBKTNV-1" source="Lccn9oIH8NGfDDjlL4F9-22" target="Lccn9oIH8NGfDDjlL4F9-9" edge="1">
                    <mxGeometry relative="1" as="geometry"/>
                </mxCell>
                <mxCell id="Lccn9oIH8NGfDDjlL4F9-29" value="fichier" style="edgeLabel;html=1;align=center;verticalAlign=middle;resizable=0;points=[];" parent="Lccn9oIH8NGfDDjlL4F9-25" vertex="1" connectable="0">
                    <mxGeometry x="-0.0619" y="1" relative="1" as="geometry">
                        <mxPoint x="-5" y="-10" as="offset"/>
                    </mxGeometry>
                </mxCell>
                <mxCell id="Lccn9oIH8NGfDDjlL4F9-31" style="edgeStyle=orthogonalEdgeStyle;curved=1;orthogonalLoop=1;jettySize=auto;html=1;exitX=0.75;exitY=1;exitDx=0;exitDy=0;entryX=1;entryY=0.5;entryDx=0;entryDy=0;fillColor=#f8cecc;strokeColor=#b85450;" parent="WIyWlLk6GJQsqaUBKTNV-1" source="Lccn9oIH8NGfDDjlL4F9-22" target="Lccn9oIH8NGfDDjlL4F9-9" edge="1">
                    <mxGeometry relative="1" as="geometry"/>
                </mxCell>
                <mxCell id="Lccn9oIH8NGfDDjlL4F9-32" value="user/mdp" style="edgeLabel;html=1;align=center;verticalAlign=middle;resizable=0;points=[];" parent="Lccn9oIH8NGfDDjlL4F9-31" vertex="1" connectable="0">
                    <mxGeometry x="-0.5714" y="-12" relative="1" as="geometry">
                        <mxPoint as="offset"/>
                    </mxGeometry>
                </mxCell>
                <mxCell id="Lccn9oIH8NGfDDjlL4F9-22" value="Fournisseur B" style="rounded=0;whiteSpace=wrap;html=1;" parent="WIyWlLk6GJQsqaUBKTNV-1" vertex="1">
                    <mxGeometry x="601" y="95" width="120" height="60" as="geometry"/>
                </mxCell>
                <mxCell id="Lccn9oIH8NGfDDjlL4F9-15" value="" style="endArrow=none;html=1;curved=1;fillColor=#dae8fc;strokeColor=#6c8ebf;dashed=1;strokeWidth=2;" parent="WIyWlLk6GJQsqaUBKTNV-1" edge="1">
                    <mxGeometry width="50" height="50" relative="1" as="geometry">
                        <mxPoint x="342" y="255" as="sourcePoint"/>
                        <mxPoint x="483" y="96" as="targetPoint"/>
                        <Array as="points">
                            <mxPoint x="483" y="233"/>
                        </Array>
                    </mxGeometry>
                </mxCell>
                <mxCell id="Lccn9oIH8NGfDDjlL4F9-65" style="edgeStyle=orthogonalEdgeStyle;curved=1;orthogonalLoop=1;jettySize=auto;html=1;exitX=0;exitY=0;exitDx=0;exitDy=0;strokeWidth=1;" parent="WIyWlLk6GJQsqaUBKTNV-1" source="Lccn9oIH8NGfDDjlL4F9-27" edge="1">
                    <mxGeometry relative="1" as="geometry">
                        <mxPoint x="233" y="344" as="targetPoint"/>
                        <Array as="points">
                            <mxPoint x="359" y="292"/>
                            <mxPoint x="233" y="292"/>
                        </Array>
                    </mxGeometry>
                </mxCell>
                <mxCell id="Lccn9oIH8NGfDDjlL4F9-66" value="fichiers de db" style="edgeLabel;html=1;align=center;verticalAlign=middle;resizable=0;points=[];" parent="Lccn9oIH8NGfDDjlL4F9-65" vertex="1" connectable="0">
                    <mxGeometry x="0.1477" relative="1" as="geometry">
                        <mxPoint x="-7.42" y="-12" as="offset"/>
                    </mxGeometry>
                </mxCell>
                <mxCell id="Lccn9oIH8NGfDDjlL4F9-27" value="DB" style="ellipse;whiteSpace=wrap;html=1;aspect=fixed;fillColor=#FF9999;" parent="WIyWlLk6GJQsqaUBKTNV-1" vertex="1">
                    <mxGeometry x="347" y="295" width="80" height="80" as="geometry"/>
                </mxCell>
                <mxCell id="Lccn9oIH8NGfDDjlL4F9-35" value="stockage" style="group;strokeWidth=3;" parent="WIyWlLk6GJQsqaUBKTNV-1" vertex="1" connectable="0">
                    <mxGeometry x="564" y="298" width="80" height="20" as="geometry"/>
                </mxCell>
                <mxCell id="Lccn9oIH8NGfDDjlL4F9-36" value="" style="endArrow=none;html=1;strokeWidth=3;" parent="Lccn9oIH8NGfDDjlL4F9-35" edge="1">
                    <mxGeometry width="50" height="50" relative="1" as="geometry">
                        <mxPoint as="sourcePoint"/>
                        <mxPoint x="80" as="targetPoint"/>
                    </mxGeometry>
                </mxCell>
                <mxCell id="Lccn9oIH8NGfDDjlL4F9-49" value="&lt;br&gt;" style="edgeLabel;html=1;align=center;verticalAlign=middle;resizable=0;points=[];" parent="Lccn9oIH8NGfDDjlL4F9-36" vertex="1" connectable="0">
                    <mxGeometry x="-0.375" y="-1" relative="1" as="geometry">
                        <mxPoint as="offset"/>
                    </mxGeometry>
                </mxCell>
                <mxCell id="Lccn9oIH8NGfDDjlL4F9-50" value="&lt;br&gt;" style="edgeLabel;html=1;align=center;verticalAlign=middle;resizable=0;points=[];" parent="Lccn9oIH8NGfDDjlL4F9-36" vertex="1" connectable="0">
                    <mxGeometry x="0.4" y="3" relative="1" as="geometry">
                        <mxPoint as="offset"/>
                    </mxGeometry>
                </mxCell>
                <mxCell id="Lccn9oIH8NGfDDjlL4F9-51" value="&lt;br&gt;" style="edgeLabel;html=1;align=center;verticalAlign=middle;resizable=0;points=[];" parent="Lccn9oIH8NGfDDjlL4F9-36" vertex="1" connectable="0">
                    <mxGeometry x="-0.275" y="1" relative="1" as="geometry">
                        <mxPoint as="offset"/>
                    </mxGeometry>
                </mxCell>
                <mxCell id="Lccn9oIH8NGfDDjlL4F9-37" value="" style="endArrow=none;html=1;strokeWidth=3;" parent="Lccn9oIH8NGfDDjlL4F9-35" edge="1">
                    <mxGeometry width="50" height="50" relative="1" as="geometry">
                        <mxPoint y="20" as="sourcePoint"/>
                        <mxPoint x="80" y="20" as="targetPoint"/>
                    </mxGeometry>
                </mxCell>
                <mxCell id="Lccn9oIH8NGfDDjlL4F9-41" value="" style="endArrow=none;html=1;curved=1;fillColor=#dae8fc;strokeColor=#6c8ebf;dashed=1;strokeWidth=2;" parent="WIyWlLk6GJQsqaUBKTNV-1" edge="1">
                    <mxGeometry width="50" height="50" relative="1" as="geometry">
                        <mxPoint x="684" y="288" as="sourcePoint"/>
                        <mxPoint x="502" y="58" as="targetPoint"/>
                        <Array as="points">
                            <mxPoint x="502" y="196"/>
                        </Array>
                    </mxGeometry>
                </mxCell>
                <mxCell id="Lccn9oIH8NGfDDjlL4F9-43" value="user/mdp" style="edgeStyle=orthogonalEdgeStyle;curved=1;orthogonalLoop=1;jettySize=auto;html=1;exitX=0.25;exitY=0;exitDx=0;exitDy=0;entryX=0.675;entryY=0.975;entryDx=0;entryDy=0;entryPerimeter=0;strokeWidth=1;fillColor=#f8cecc;strokeColor=#b85450;" parent="WIyWlLk6GJQsqaUBKTNV-1" source="Lccn9oIH8NGfDDjlL4F9-42" target="Lccn9oIH8NGfDDjlL4F9-9" edge="1">
                    <mxGeometry relative="1" as="geometry"/>
                </mxCell>
                <mxCell id="Lccn9oIH8NGfDDjlL4F9-42" value="Utilisateur interne" style="rounded=0;whiteSpace=wrap;html=1;" parent="WIyWlLk6GJQsqaUBKTNV-1" vertex="1">
                    <mxGeometry x="645" y="466" width="120" height="60" as="geometry"/>
                </mxCell>
                <mxCell id="Lccn9oIH8NGfDDjlL4F9-52" value="stockage" style="group;strokeWidth=3;" parent="WIyWlLk6GJQsqaUBKTNV-1" vertex="1" connectable="0">
                    <mxGeometry x="374" y="595" width="80" height="20" as="geometry"/>
                </mxCell>
                <mxCell id="Lccn9oIH8NGfDDjlL4F9-53" value="" style="endArrow=none;html=1;strokeWidth=3;" parent="Lccn9oIH8NGfDDjlL4F9-52" edge="1">
                    <mxGeometry width="50" height="50" relative="1" as="geometry">
                        <mxPoint as="sourcePoint"/>
                        <mxPoint x="80" as="targetPoint"/>
                    </mxGeometry>
                </mxCell>
                <mxCell id="Lccn9oIH8NGfDDjlL4F9-54" value="&lt;br&gt;" style="edgeLabel;html=1;align=center;verticalAlign=middle;resizable=0;points=[];" parent="Lccn9oIH8NGfDDjlL4F9-53" vertex="1" connectable="0">
                    <mxGeometry x="-0.375" y="-1" relative="1" as="geometry">
                        <mxPoint as="offset"/>
                    </mxGeometry>
                </mxCell>
                <mxCell id="Lccn9oIH8NGfDDjlL4F9-55" value="&lt;br&gt;" style="edgeLabel;html=1;align=center;verticalAlign=middle;resizable=0;points=[];" parent="Lccn9oIH8NGfDDjlL4F9-53" vertex="1" connectable="0">
                    <mxGeometry x="0.4" y="3" relative="1" as="geometry">
                        <mxPoint as="offset"/>
                    </mxGeometry>
                </mxCell>
                <mxCell id="Lccn9oIH8NGfDDjlL4F9-56" value="&lt;br&gt;" style="edgeLabel;html=1;align=center;verticalAlign=middle;resizable=0;points=[];" parent="Lccn9oIH8NGfDDjlL4F9-53" vertex="1" connectable="0">
                    <mxGeometry x="-0.275" y="1" relative="1" as="geometry">
                        <mxPoint as="offset"/>
                    </mxGeometry>
                </mxCell>
                <mxCell id="Lccn9oIH8NGfDDjlL4F9-57" value="" style="endArrow=none;html=1;strokeWidth=3;" parent="Lccn9oIH8NGfDDjlL4F9-52" edge="1">
                    <mxGeometry width="50" height="50" relative="1" as="geometry">
                        <mxPoint y="20" as="sourcePoint"/>
                        <mxPoint x="80" y="20" as="targetPoint"/>
                    </mxGeometry>
                </mxCell>
                <mxCell id="Lccn9oIH8NGfDDjlL4F9-58" value="" style="endArrow=none;html=1;curved=1;fillColor=#dae8fc;strokeColor=#6c8ebf;dashed=1;strokeWidth=2;" parent="WIyWlLk6GJQsqaUBKTNV-1" edge="1">
                    <mxGeometry width="50" height="50" relative="1" as="geometry">
                        <mxPoint x="540" y="526" as="sourcePoint"/>
                        <mxPoint x="685" y="345" as="targetPoint"/>
                        <Array as="points">
                            <mxPoint x="510" y="339"/>
                        </Array>
                    </mxGeometry>
                </mxCell>
                <mxCell id="Lccn9oIH8NGfDDjlL4F9-59" value="stockage" style="group;strokeWidth=3;" parent="WIyWlLk6GJQsqaUBKTNV-1" vertex="1" connectable="0">
                    <mxGeometry x="201" y="347" width="80" height="20" as="geometry"/>
                </mxCell>
                <mxCell id="Lccn9oIH8NGfDDjlL4F9-60" value="" style="endArrow=none;html=1;strokeWidth=3;" parent="Lccn9oIH8NGfDDjlL4F9-59" edge="1">
                    <mxGeometry width="50" height="50" relative="1" as="geometry">
                        <mxPoint as="sourcePoint"/>
                        <mxPoint x="80" as="targetPoint"/>
                    </mxGeometry>
                </mxCell>
                <mxCell id="Lccn9oIH8NGfDDjlL4F9-61" value="&lt;br&gt;" style="edgeLabel;html=1;align=center;verticalAlign=middle;resizable=0;points=[];" parent="Lccn9oIH8NGfDDjlL4F9-60" vertex="1" connectable="0">
                    <mxGeometry x="-0.375" y="-1" relative="1" as="geometry">
                        <mxPoint as="offset"/>
                    </mxGeometry>
                </mxCell>
                <mxCell id="Lccn9oIH8NGfDDjlL4F9-62" value="&lt;br&gt;" style="edgeLabel;html=1;align=center;verticalAlign=middle;resizable=0;points=[];" parent="Lccn9oIH8NGfDDjlL4F9-60" vertex="1" connectable="0">
                    <mxGeometry x="0.4" y="3" relative="1" as="geometry">
                        <mxPoint as="offset"/>
                    </mxGeometry>
                </mxCell>
                <mxCell id="Lccn9oIH8NGfDDjlL4F9-63" value="&lt;br&gt;" style="edgeLabel;html=1;align=center;verticalAlign=middle;resizable=0;points=[];" parent="Lccn9oIH8NGfDDjlL4F9-60" vertex="1" connectable="0">
                    <mxGeometry x="-0.275" y="1" relative="1" as="geometry">
                        <mxPoint as="offset"/>
                    </mxGeometry>
                </mxCell>
                <mxCell id="Lccn9oIH8NGfDDjlL4F9-64" value="" style="endArrow=none;html=1;strokeWidth=3;" parent="Lccn9oIH8NGfDDjlL4F9-59" edge="1">
                    <mxGeometry width="50" height="50" relative="1" as="geometry">
                        <mxPoint y="20" as="sourcePoint"/>
                        <mxPoint x="80" y="20" as="targetPoint"/>
                    </mxGeometry>
                </mxCell>
                <mxCell id="Lccn9oIH8NGfDDjlL4F9-67" value="" style="endArrow=none;html=1;curved=1;fillColor=#dae8fc;strokeColor=#6c8ebf;dashed=1;strokeWidth=2;" parent="WIyWlLk6GJQsqaUBKTNV-1" edge="1">
                    <mxGeometry width="50" height="50" relative="1" as="geometry">
                        <mxPoint x="459" y="343" as="sourcePoint"/>
                        <mxPoint x="267" y="252" as="targetPoint"/>
                        <Array as="points">
                            <mxPoint x="430" y="273"/>
                        </Array>
                    </mxGeometry>
                </mxCell>
            </root>
        </mxGraphModel>
    </diagram>
</mxfile>
